<mxfile host="app.diagrams.net" modified="2023-11-02T15:40:57.212Z" agent="Mozilla/5.0 (Macintosh; Intel Mac OS X 10_15_7) AppleWebKit/537.36 (KHTML, like Gecko) Chrome/118.0.0.0 Safari/537.36" etag="5xsWbmJWuNY5uM_z7PqZ" version="22.0.8" type="github">
  <diagram name="Page-1" id="V72qcYALdxYXHNIwAYA2">
    <mxGraphModel dx="1151" dy="770" grid="1" gridSize="10" guides="1" tooltips="1" connect="1" arrows="1" fold="1" page="1" pageScale="1" pageWidth="1600" pageHeight="900" math="0" shadow="0">
      <root>
        <mxCell id="0" />
        <mxCell id="1" parent="0" />
      </root>
    </mxGraphModel>
  </diagram>
</mxfile>
